<svg width="40" height="41" viewBox="0 0 40 41" fill="none" xmlns="http://www.w3.org/2000/svg">
<g clip-path="url(#clip0)">
<path d="M0 36.65C0 38.7203 1.91964 40.4 4.28571 40.4H35.7143C38.0804 40.4 40 38.7203 40 36.65V15.4H0V36.65ZM28.5714 21.3375C28.5714 20.8219 29.0536 20.4 29.6429 20.4H33.2143C33.8036 20.4 34.2857 20.8219 34.2857 21.3375V24.4625C34.2857 24.9781 33.8036 25.4 33.2143 25.4H29.6429C29.0536 25.4 28.5714 24.9781 28.5714 24.4625V21.3375ZM28.5714 31.3375C28.5714 30.8219 29.0536 30.4 29.6429 30.4H33.2143C33.8036 30.4 34.2857 30.8219 34.2857 31.3375V34.4625C34.2857 34.9781 33.8036 35.4 33.2143 35.4H29.6429C29.0536 35.4 28.5714 34.9781 28.5714 34.4625V31.3375ZM17.1429 21.3375C17.1429 20.8219 17.625 20.4 18.2143 20.4H21.7857C22.375 20.4 22.8571 20.8219 22.8571 21.3375V24.4625C22.8571 24.9781 22.375 25.4 21.7857 25.4H18.2143C17.625 25.4 17.1429 24.9781 17.1429 24.4625V21.3375ZM17.1429 31.3375C17.1429 30.8219 17.625 30.4 18.2143 30.4H21.7857C22.375 30.4 22.8571 30.8219 22.8571 31.3375V34.4625C22.8571 34.9781 22.375 35.4 21.7857 35.4H18.2143C17.625 35.4 17.1429 34.9781 17.1429 34.4625V31.3375ZM5.71429 21.3375C5.71429 20.8219 6.19643 20.4 6.78571 20.4H10.3571C10.9464 20.4 11.4286 20.8219 11.4286 21.3375V24.4625C11.4286 24.9781 10.9464 25.4 10.3571 25.4H6.78571C6.19643 25.4 5.71429 24.9781 5.71429 24.4625V21.3375ZM5.71429 31.3375C5.71429 30.8219 6.19643 30.4 6.78571 30.4H10.3571C10.9464 30.4 11.4286 30.8219 11.4286 31.3375V34.4625C11.4286 34.9781 10.9464 35.4 10.3571 35.4H6.78571C6.19643 35.4 5.71429 34.9781 5.71429 34.4625V31.3375ZM35.7143 5.40002H31.4286V1.65002C31.4286 0.962524 30.7857 0.400024 30 0.400024H27.1429C26.3571 0.400024 25.7143 0.962524 25.7143 1.65002V5.40002H14.2857V1.65002C14.2857 0.962524 13.6429 0.400024 12.8571 0.400024H10C9.21429 0.400024 8.57143 0.962524 8.57143 1.65002V5.40002H4.28571C1.91964 5.40002 0 7.07971 0 9.15002V12.9H40V9.15002C40 7.07971 38.0804 5.40002 35.7143 5.40002Z" fill="white"/>
</g>
<defs>
<clipPath id="clip0">
<rect width="40" height="40" fill="white" transform="translate(0 0.400024)"/>
</clipPath>
</defs>
</svg>
