<svg width="40" height="41" viewBox="0 0 40 41" fill="none" xmlns="http://www.w3.org/2000/svg">
<path d="M20 0.400024C8.95161 0.400024 0 9.35164 0 20.4C0 31.4484 8.95161 40.4 20 40.4C31.0484 40.4 40 31.4484 40 20.4C40 9.35164 31.0484 0.400024 20 0.400024ZM24.6048 28.6339L17.4919 23.4645C17.2419 23.2791 17.0968 22.9887 17.0968 22.6823V9.1097C17.0968 8.57744 17.5323 8.14196 18.0645 8.14196H21.9355C22.4677 8.14196 22.9032 8.57744 22.9032 9.1097V20.2145L28.0242 23.9403C28.4597 24.2549 28.5484 24.8597 28.2339 25.2952L25.9597 28.4242C25.6452 28.8516 25.0403 28.9484 24.6048 28.6339Z" fill="white"/>
</svg>
