<svg width="40" height="41" viewBox="0 0 40 41" fill="none" xmlns="http://www.w3.org/2000/svg">
<path fill-rule="evenodd" clip-rule="evenodd" d="M3.375 29.9V8.52502H36.625V29.9H3.375ZM36.625 6.15002H3.375C2.74511 6.15002 2.14102 6.40025 1.69562 6.84565C1.25022 7.29104 1 7.89514 1 8.52502V32.275C1 32.9049 1.25022 33.509 1.69562 33.9544C2.14102 34.3998 2.74511 34.65 3.375 34.65H36.625C37.2549 34.65 37.859 34.3998 38.3044 33.9544C38.7498 33.509 39 32.9049 39 32.275V8.52502C39 7.89514 38.7498 7.29104 38.3044 6.84565C37.859 6.40025 37.2549 6.15002 36.625 6.15002ZM34.25 20.4H24.75V27.525H34.25V20.4Z" fill="white"/>
</svg>
