<svg width="40" height="41" viewBox="0 0 40 41" fill="none" xmlns="http://www.w3.org/2000/svg">
<path fill-rule="evenodd" clip-rule="evenodd" d="M21.2667 25.8644V11.5334H18.7333V25.8467L13.8592 20.1822L11.9389 21.8288L20.0025 31.2072L28.0965 21.8339L26.1763 20.1796L21.2667 25.8644ZM20 1.40002C9.50693 1.40002 1 9.90696 1 20.4C1 30.8931 9.50693 39.4 20 39.4C30.4931 39.4 39 30.8931 39 20.4C39 9.90696 30.4931 1.40002 20 1.40002ZM20 36.8667C10.9205 36.8667 3.53333 29.4795 3.53333 20.4C3.53333 11.3206 10.9205 3.93336 20 3.93336C29.0795 3.93336 36.4667 11.3206 36.4667 20.4C36.4667 29.4795 29.0795 36.8667 20 36.8667Z" fill="white"/>
</svg>
