<svg width="40" height="41" viewBox="0 0 40 41" fill="none" xmlns="http://www.w3.org/2000/svg">
<path fill-rule="evenodd" clip-rule="evenodd" d="M13.1919 6.86777V28.3227C11.9424 26.7767 10.0337 25.7839 7.89674 25.7839C4.14284 25.7839 1.08865 28.838 1.08865 32.5919C1.08865 36.3458 4.14284 39.4 7.89674 39.4C11.6506 39.4 14.7048 36.3458 14.7048 32.5919V8.09228L37.3985 3.26752V23.7154C36.1494 22.1694 34.2412 21.1766 32.1033 21.1766C28.3494 21.1766 25.2952 24.2308 25.2952 27.9847C25.2952 31.7386 28.3494 34.7927 32.1033 34.7927C35.8572 34.7927 38.9114 31.7386 38.9114 27.9847V1.40002L13.1919 6.86777ZM7.89674 37.8871C4.97683 37.8871 2.60156 35.5114 2.60156 32.5919C2.60156 29.6716 4.97683 27.2968 7.89674 27.2968C10.8167 27.2968 13.1919 29.6716 13.1919 32.5919C13.1919 35.5109 10.8157 37.8871 7.89674 37.8871ZM32.1033 33.2798C29.1834 33.2798 26.8081 30.9046 26.8081 27.9847C26.8081 25.0657 29.1834 22.6895 32.1033 22.6895C35.0232 22.6895 37.3985 25.0657 37.3985 27.9847C37.3985 30.9055 35.0222 33.2798 32.1033 33.2798Z" fill="white"/>
</svg>
