<svg width="40" height="41" viewBox="0 0 40 41" fill="none" xmlns="http://www.w3.org/2000/svg">
<path d="M20 1.40002C16.2422 1.40002 12.5687 2.51435 9.44417 4.6021C6.31964 6.68985 3.88436 9.65724 2.4463 13.129C1.00823 16.6008 0.631969 20.4211 1.36509 24.1067C2.09821 27.7924 3.90778 31.1779 6.56498 33.835C9.22218 36.4922 12.6077 38.3018 16.2933 39.0349C19.9789 39.7681 23.7992 39.3918 27.271 37.9537C30.7428 36.5157 33.7102 34.0804 35.7979 30.9559C37.8857 27.8313 39 24.1579 39 20.4C39 15.3609 36.9982 10.5282 33.435 6.96499C29.8718 3.4018 25.0391 1.40002 20 1.40002V1.40002ZM20 29.9C18.1211 29.9 16.2844 29.3429 14.7221 28.299C13.1598 27.2551 11.9422 25.7714 11.2232 24.0355C10.5041 22.2996 10.316 20.3895 10.6825 18.5467C11.0491 16.7038 11.9539 15.0111 13.2825 13.6825C14.6111 12.3539 16.3038 11.4491 18.1466 11.0826C19.9895 10.716 21.8996 10.9041 23.6355 11.6232C25.3714 12.3422 26.8551 13.5598 27.899 15.1221C28.9428 16.6844 29.5 18.5211 29.5 20.4C29.5 22.9196 28.4991 25.3359 26.7175 27.1175C24.9359 28.8991 22.5196 29.9 20 29.9Z" fill="white"/>
</svg>
