<svg width="40" height="41" viewBox="0 0 40 41" fill="none" xmlns="http://www.w3.org/2000/svg">
<path d="M29.4401 27.5182L37.5502 37.0236L34.7596 39.4L26.6713 29.9164C24.0551 31.6605 21.17 32.5325 18.016 32.5325C15.9085 32.5325 13.8919 32.122 11.9661 31.3008C10.0404 30.4796 8.38344 29.375 6.99535 27.987C5.60726 26.5989 4.50266 24.942 3.68154 23.0162C2.86041 21.0904 2.44983 19.0737 2.44977 16.9663C2.44971 14.8588 2.8603 12.8422 3.68154 10.9164C4.50277 8.99056 5.60738 7.33364 6.99535 5.94561C8.38333 4.55758 10.0403 3.45297 11.9661 2.63179C13.892 1.81061 15.9086 1.40002 18.016 1.40002C20.1234 1.40002 22.1401 1.81061 24.0659 2.63179C25.9918 3.45297 27.6487 4.55758 29.0367 5.94561C30.4247 7.33364 31.5293 8.99056 32.3505 10.9164C33.1718 12.8422 33.5823 14.8588 33.5823 16.9663C33.5823 18.3034 33.4152 19.6115 33.0809 20.8905C32.7466 22.1695 32.2706 23.3614 31.6529 24.466C31.0351 25.5706 30.2975 26.588 29.44 27.5182H29.4401ZM18.0161 28.8698C19.6294 28.8698 21.17 28.5536 22.638 27.9214C24.106 27.2891 25.3705 26.4425 26.4314 25.3815C27.4924 24.3206 28.339 23.0561 28.9713 21.5881C29.6036 20.1201 29.9197 18.5795 29.9197 16.9662C29.9197 15.3529 29.6036 13.8123 28.9713 12.3443C28.339 10.8763 27.4924 9.61181 26.4314 8.55079C25.3705 7.48976 24.106 6.64314 22.638 6.01094C21.17 5.37873 19.6294 5.06262 18.0161 5.06262C16.4028 5.06262 14.8622 5.37873 13.3942 6.01094C11.9262 6.64314 10.6617 7.48979 9.6007 8.55087C8.53968 9.61196 7.69306 10.8764 7.06085 12.3443C6.42864 13.8122 6.11254 15.3528 6.11254 16.9662C6.11254 18.5796 6.42864 20.1202 7.06085 21.5881C7.69306 23.056 8.53971 24.3204 9.60079 25.3815C10.6619 26.4426 11.9263 27.2892 13.3942 27.9214C14.8621 28.5535 16.4027 28.8697 18.0161 28.8698Z" fill="white"/>
</svg>
