<svg width="37" height="41" viewBox="0 0 37 41" fill="none" xmlns="http://www.w3.org/2000/svg">
<g clip-path="url(#clip0)">
<path d="M20.7599 6.02811L12.2645 12.9781H2.51921C1.25306 12.9781 0.227539 13.8172 0.227539 14.8531V26.1031C0.227539 27.1383 1.25306 27.9781 2.51921 27.9781H12.2645L20.7599 34.9273C22.1951 36.1015 24.672 35.2765 24.672 33.6015V7.35467C24.672 5.67733 22.1932 4.85624 20.7599 6.02811ZM32.5238 14.4719C31.4181 13.9773 30.023 14.3031 29.41 15.2101C28.7999 16.1172 29.2038 17.257 30.3124 17.7578C31.5451 18.3125 32.3109 19.3547 32.3109 20.4781C32.3109 21.6015 31.5451 22.6437 30.3133 23.1976C29.2047 23.6984 28.8008 24.8383 29.411 25.7453C30.0249 26.6562 31.4209 26.9797 32.5248 26.4836C35.2203 25.2687 36.8952 22.968 36.8952 20.4773C36.8952 17.9867 35.2203 15.6867 32.5238 14.4719Z" fill="white"/>
</g>
<defs>
<clipPath id="clip0">
<rect width="36.6667" height="40" fill="white" transform="translate(0.227539 0.400024)"/>
</clipPath>
</defs>
</svg>
