<svg width="38" height="41" viewBox="0 0 38 41" fill="none" xmlns="http://www.w3.org/2000/svg">
<g clip-path="url(#clip0)">
<path d="M14.249 5.9508L8.58544 12.9H2.08857C1.24447 12.9 0.560791 13.7391 0.560791 14.775V26.025C0.560791 27.0602 1.24447 27.9 2.08857 27.9H8.58544L14.249 34.8492C15.2058 36.0235 16.8571 35.1985 16.8571 33.5235V7.27658C16.8571 5.60002 15.2045 4.77815 14.249 5.9508ZM29.1016 1.96018C28.3905 1.38752 27.435 1.62893 26.9684 2.50315C26.5012 3.3758 26.6998 4.54846 27.4109 5.12111C31.6294 8.51877 34.1471 14.2305 34.1471 20.4008C34.1471 26.5711 31.6294 32.2828 27.4109 35.6805C26.6998 36.2524 26.5012 37.4258 26.9684 38.2977C27.4166 39.1344 28.3644 39.4352 29.1016 38.8406C34.1891 34.7422 37.2275 27.8477 37.2275 20.4C37.2275 12.9524 34.1891 6.05861 29.1016 1.96018ZM31.1163 20.4C31.1163 15.4367 29.0755 10.8735 25.6565 8.19377C24.9441 7.63596 23.9994 7.89533 23.5481 8.77658C23.0968 9.65783 23.3075 10.8242 24.0198 11.3828C26.5502 13.3664 28.0608 16.7367 28.0608 20.4C28.0608 24.0633 26.5502 27.4336 24.0198 29.4172C23.3075 29.975 23.0968 31.1414 23.5481 32.0235C23.9625 32.8328 24.8926 33.2063 25.6565 32.6063C29.0755 29.9266 31.1163 25.3641 31.1163 20.4ZM22.0916 14.3946C21.3545 13.9 20.4244 14.2258 20.0158 15.1328C19.609 16.0399 19.8783 17.1797 20.6173 17.6805C21.4391 18.2344 21.9497 19.2774 21.9497 20.4C21.9497 21.5235 21.4391 22.5656 20.618 23.1196C19.8789 23.6203 19.6096 24.7602 20.0164 25.6672C20.4257 26.5781 21.3564 26.9016 22.0923 26.4055C23.8893 25.1906 25.0059 22.8899 25.0059 20.3992C25.0059 17.9086 23.8893 15.6086 22.0916 14.3946Z" fill="#B3B3B3"/>
</g>
<defs>
<clipPath id="clip0">
<rect width="36.6667" height="40" fill="white" transform="translate(0.560791 0.400024)"/>
</clipPath>
</defs>
</svg>
