<svg width="24" height="24" viewBox="0 0 24 24" fill="none" xmlns="http://www.w3.org/2000/svg">
<path fill-rule="evenodd" clip-rule="evenodd" d="M4.29289 4.29289C4.48043 4.10536 4.73478 4 5 4H16C16.5523 4 17 3.55228 17 3C17 2.44772 16.5523 2 16 2H5C4.20435 2 3.44129 2.31607 2.87868 2.87868C2.31607 3.44129 2 4.20435 2 5V19C2 19.7957 2.31607 20.5587 2.87868 21.1213C3.44129 21.6839 4.20435 22 5 22H19C19.7957 22 20.5587 21.6839 21.1213 21.1213C21.6839 20.5587 22 19.7957 22 19V12C22 11.4477 21.5523 11 21 11C20.4477 11 20 11.4477 20 12V19C20 19.2652 19.8946 19.5196 19.7071 19.7071C19.5196 19.8946 19.2652 20 19 20H5C4.73478 20 4.48043 19.8946 4.29289 19.7071C4.10536 19.5196 4 19.2652 4 19V5C4 4.73478 4.10536 4.48043 4.29289 4.29289ZM12.7071 14.7071L22.7071 4.70711C23.0976 4.31658 23.0976 3.68342 22.7071 3.29289C22.3166 2.90237 21.6834 2.90237 21.2929 3.29289L12 12.5858L9.70711 10.2929C9.31658 9.90237 8.68342 9.90237 8.29289 10.2929C7.90237 10.6834 7.90237 11.3166 8.29289 11.7071L11.2929 14.7071C11.6834 15.0976 12.3166 15.0976 12.7071 14.7071Z" fill="#222222"/>
</svg>
