<svg width="24" height="24" viewBox="0 0 24 24" fill="none" xmlns="http://www.w3.org/2000/svg">
<path fill-rule="evenodd" clip-rule="evenodd" d="M12 3C7.02944 3 3 7.02944 3 12C3 16.9706 7.02944 21 12 21C16.9706 21 21 16.9706 21 12C21 7.02944 16.9706 3 12 3ZM1 12C1 5.92487 5.92487 1 12 1C18.0751 1 23 5.92487 23 12C23 18.0751 18.0751 23 12 23C5.92487 23 1 18.0751 1 12ZM12.2581 8.02431C11.7926 7.94446 11.3138 8.03194 10.9066 8.27126C10.4994 8.51057 10.1901 8.88628 10.0333 9.33183C9.85006 9.85282 9.27914 10.1266 8.75815 9.94332C8.23716 9.76005 7.96339 9.18914 8.14666 8.66815C8.46013 7.77704 9.07887 7.02562 9.89327 6.54699C10.7077 6.06836 11.6652 5.8934 12.5962 6.0531C13.5273 6.21279 14.3718 6.69685 14.9801 7.41952C15.5883 8.14204 15.9213 9.05647 15.92 10.0009C15.9195 11.5313 14.7849 12.5419 13.9747 13.082C13.5391 13.3725 13.1105 13.586 12.7949 13.7263C12.6356 13.7971 12.5015 13.8508 12.4049 13.8876C12.3565 13.906 12.3173 13.9203 12.2887 13.9305L12.254 13.9426L12.2429 13.9464L12.239 13.9477L12.2375 13.9483L12.2368 13.9485C12.2365 13.9486 12.2362 13.9487 11.92 13L12.2362 13.9487C11.7123 14.1233 11.146 13.8402 10.9713 13.3162C10.7968 12.7926 11.0794 12.2267 11.6027 12.0517C11.6029 12.0516 11.6031 12.0515 11.6033 12.0515C11.6032 12.0515 11.6032 12.0515 11.6032 12.0515L11.6028 12.0516L11.6027 12.0517L11.6021 12.0519L11.6014 12.0521C11.6015 12.0521 11.6021 12.0518 11.6032 12.0515L11.6187 12.0461C11.6341 12.0406 11.6593 12.0314 11.6929 12.0186C11.7603 11.9929 11.8606 11.9529 11.9826 11.8987C12.2294 11.789 12.5509 11.6275 12.8653 11.4179C13.5549 10.9582 13.92 10.4691 13.92 9.99999L13.92 9.9985C13.9207 9.52618 13.7542 9.06885 13.45 8.70752C13.1459 8.34618 12.7236 8.10416 12.2581 8.02431ZM11.6014 12.0521L11.6014 12.0521L11.6014 12.0521ZM15.92 10.0009C15.92 10.0011 15.92 10.0013 15.92 10.0015L14.92 9.99999H15.92C15.92 10.0003 15.92 10.0006 15.92 10.0009ZM11 17C11 16.4477 11.4477 16 12 16H12.01C12.5623 16 13.01 16.4477 13.01 17C13.01 17.5523 12.5623 18 12.01 18H12C11.4477 18 11 17.5523 11 17Z" fill="#222222"/>
</svg>
